<mxfile host="app.diagrams.net" agent="Mozilla/5.0 (Windows NT 10.0; Win64; x64; rv:136.0) Gecko/20100101 Firefox/136.0" version="26.0.16">
  <diagram name="Page-1" id="9Z0wnx1XIICip3bffmsN">
    <mxGraphModel dx="653" dy="378" grid="1" gridSize="10" guides="1" tooltips="1" connect="1" arrows="1" fold="1" page="1" pageScale="1" pageWidth="850" pageHeight="1100" math="0" shadow="0">
      <root>
        <mxCell id="0" />
        <mxCell id="1" parent="0" />
        <mxCell id="J-enOfOytw5LMeYjTnpe-1" value="employee" style="shape=umlActor;verticalLabelPosition=bottom;verticalAlign=top;html=1;outlineConnect=0;" vertex="1" parent="1">
          <mxGeometry x="100" y="161" width="30" height="60" as="geometry" />
        </mxCell>
        <mxCell id="J-enOfOytw5LMeYjTnpe-4" value="execute transaction" style="ellipse;whiteSpace=wrap;html=1;" vertex="1" parent="1">
          <mxGeometry x="210" y="90" width="120" height="29" as="geometry" />
        </mxCell>
        <mxCell id="J-enOfOytw5LMeYjTnpe-5" value="create account" style="ellipse;whiteSpace=wrap;html=1;" vertex="1" parent="1">
          <mxGeometry x="210" y="129" width="120" height="29" as="geometry" />
        </mxCell>
        <mxCell id="J-enOfOytw5LMeYjTnpe-6" value="send bank statement" style="ellipse;whiteSpace=wrap;html=1;" vertex="1" parent="1">
          <mxGeometry x="210" y="170" width="120" height="29" as="geometry" />
        </mxCell>
        <mxCell id="J-enOfOytw5LMeYjTnpe-7" value="deposit" style="ellipse;whiteSpace=wrap;html=1;" vertex="1" parent="1">
          <mxGeometry x="380" y="75" width="120" height="25" as="geometry" />
        </mxCell>
        <mxCell id="J-enOfOytw5LMeYjTnpe-9" value="withdrawal" style="ellipse;whiteSpace=wrap;html=1;" vertex="1" parent="1">
          <mxGeometry x="380" y="103" width="120" height="29" as="geometry" />
        </mxCell>
        <mxCell id="J-enOfOytw5LMeYjTnpe-10" value="" style="endArrow=none;html=1;rounded=0;entryX=1;entryY=0.5;entryDx=0;entryDy=0;exitX=0;exitY=0.5;exitDx=0;exitDy=0;" edge="1" parent="1" source="J-enOfOytw5LMeYjTnpe-7" target="J-enOfOytw5LMeYjTnpe-4">
          <mxGeometry width="50" height="50" relative="1" as="geometry">
            <mxPoint x="290" y="210" as="sourcePoint" />
            <mxPoint x="340" y="160" as="targetPoint" />
          </mxGeometry>
        </mxCell>
        <mxCell id="J-enOfOytw5LMeYjTnpe-11" value="" style="endArrow=none;html=1;rounded=0;entryX=1;entryY=0.5;entryDx=0;entryDy=0;exitX=0;exitY=0.5;exitDx=0;exitDy=0;" edge="1" parent="1" source="J-enOfOytw5LMeYjTnpe-9" target="J-enOfOytw5LMeYjTnpe-4">
          <mxGeometry width="50" height="50" relative="1" as="geometry">
            <mxPoint x="350" y="210" as="sourcePoint" />
            <mxPoint x="400" y="160" as="targetPoint" />
          </mxGeometry>
        </mxCell>
        <mxCell id="J-enOfOytw5LMeYjTnpe-12" value="" style="endArrow=none;html=1;rounded=0;entryX=0;entryY=0.5;entryDx=0;entryDy=0;exitX=1;exitY=0.3333333333333333;exitDx=0;exitDy=0;exitPerimeter=0;" edge="1" parent="1" source="J-enOfOytw5LMeYjTnpe-1" target="J-enOfOytw5LMeYjTnpe-4">
          <mxGeometry width="50" height="50" relative="1" as="geometry">
            <mxPoint x="160" y="160" as="sourcePoint" />
            <mxPoint x="210" y="110" as="targetPoint" />
          </mxGeometry>
        </mxCell>
        <mxCell id="J-enOfOytw5LMeYjTnpe-13" value="" style="endArrow=none;html=1;rounded=0;entryX=0;entryY=0.5;entryDx=0;entryDy=0;exitX=1;exitY=0.3333333333333333;exitDx=0;exitDy=0;exitPerimeter=0;" edge="1" parent="1" source="J-enOfOytw5LMeYjTnpe-1" target="J-enOfOytw5LMeYjTnpe-5">
          <mxGeometry width="50" height="50" relative="1" as="geometry">
            <mxPoint x="180" y="290" as="sourcePoint" />
            <mxPoint x="230" y="240" as="targetPoint" />
          </mxGeometry>
        </mxCell>
        <mxCell id="J-enOfOytw5LMeYjTnpe-14" value="" style="endArrow=none;html=1;rounded=0;entryX=0;entryY=0.5;entryDx=0;entryDy=0;exitX=1;exitY=0.3333333333333333;exitDx=0;exitDy=0;exitPerimeter=0;" edge="1" parent="1" source="J-enOfOytw5LMeYjTnpe-1" target="J-enOfOytw5LMeYjTnpe-6">
          <mxGeometry width="50" height="50" relative="1" as="geometry">
            <mxPoint x="140" y="290" as="sourcePoint" />
            <mxPoint x="190" y="240" as="targetPoint" />
          </mxGeometry>
        </mxCell>
        <mxCell id="J-enOfOytw5LMeYjTnpe-15" value="authorize client" style="ellipse;whiteSpace=wrap;html=1;" vertex="1" parent="1">
          <mxGeometry x="210" y="210" width="120" height="29" as="geometry" />
        </mxCell>
        <mxCell id="J-enOfOytw5LMeYjTnpe-16" value="" style="endArrow=none;html=1;rounded=0;entryX=0;entryY=0.5;entryDx=0;entryDy=0;" edge="1" parent="1" target="J-enOfOytw5LMeYjTnpe-15">
          <mxGeometry width="50" height="50" relative="1" as="geometry">
            <mxPoint x="130" y="180" as="sourcePoint" />
            <mxPoint x="190" y="230" as="targetPoint" />
          </mxGeometry>
        </mxCell>
      </root>
    </mxGraphModel>
  </diagram>
</mxfile>
